<svg width="589" height="497" viewBox="0 0 589 497" fill="none" xmlns="http://www.w3.org/2000/svg">
<g clip-path="url(#clip0)">
<g filter="url(#filter0_d)">
<rect x="179.051" y="65.3159" width="85.5041" height="158.793" rx="3" transform="rotate(18.253 179.051 65.3159)" fill="white"/>
</g>
<rect x="181.383" y="69.9444" width="78.1752" height="151.464" rx="4" transform="rotate(18.253 181.383 69.9444)" fill="#EAEFFF"/>
<rect x="185.295" y="85.3833" width="40.3091" height="14.6578" rx="3" transform="rotate(18.253 185.295 85.3833)" fill="#DCE4FF"/>
<rect x="199.659" y="108.128" width="40.3091" height="14.6578" rx="3" transform="rotate(18.253 199.659 108.128)" fill="#DCE4FF"/>
<rect x="186.183" y="121.69" width="48.8595" height="7.32892" rx="3" transform="rotate(18.253 186.183 121.69)" fill="#DCE4FF"/>
<rect x="171.522" y="127.144" width="48.8595" height="7.32892" rx="3" transform="rotate(18.253 171.522 127.144)" fill="#DCE4FF"/>
<rect x="168.461" y="136.424" width="48.8595" height="7.32892" rx="3" transform="rotate(18.253 168.461 136.424)" fill="#DCE4FF"/>
<rect width="14.6578" height="2.44297" rx="1" transform="matrix(0.949683 0.313212 -0.313213 0.949683 165.633 219.095)" fill="#DCE4FF"/>
<g filter="url(#filter1_d)">
<rect x="60.1976" y="133.777" width="68.4033" height="127.035" rx="3" transform="rotate(-11.1147 60.1976 133.777)" fill="white"/>
</g>
<rect x="64.5005" y="136.666" width="61.0743" height="119.706" rx="3" transform="rotate(-11.1147 64.5005 136.666)" fill="#EAEFFF"/>
<g filter="url(#filter2_d)">
<rect x="89.5431" y="169.09" width="23.2082" height="15.8793" transform="rotate(-11.1147 89.5431 169.09)" fill="white"/>
</g>
<g filter="url(#filter3_d)">
<path d="M102.696 175.843L89.5431 169.09L112.316 164.616L102.696 175.843Z" fill="white"/>
</g>
<rect x="109.407" y="244.857" width="14.6578" height="2.44297" rx="1" transform="rotate(-11.1147 109.407 244.857)" fill="#DCE4FF"/>
<rect x="395.417" y="249.876" width="33" height="33" rx="5" transform="rotate(165 395.417 249.876)" fill="url(#paint0_linear)"/>
<path d="M359 242L390.999 233.5M370.5 222.5L379.11 254.323" stroke="url(#paint1_linear)" stroke-width="5"/>
<path d="M366.76 216.656C366.892 216.755 367.19 217.108 367.544 217.9C367.873 218.634 368.158 219.53 368.392 220.437C368.518 220.927 368.626 221.406 368.716 221.842C368.271 221.88 367.782 221.912 367.276 221.929C366.34 221.961 365.4 221.942 364.603 221.834C363.743 221.718 363.32 221.533 363.188 221.434C361.869 220.447 361.599 218.578 362.585 217.259C363.572 215.94 365.44 215.67 366.76 216.656Z" stroke="#FAC93D" stroke-width="4"/>
<path d="M377.015 218.205C376.935 218.35 376.626 218.694 375.891 219.155C375.21 219.582 374.362 219.988 373.496 220.345C373.028 220.538 372.569 220.711 372.149 220.86C372.051 220.425 371.951 219.945 371.864 219.446C371.703 218.524 371.592 217.591 371.588 216.786C371.584 215.919 371.709 215.474 371.789 215.329C372.583 213.886 374.397 213.36 375.84 214.155C377.283 214.949 377.809 216.762 377.015 218.205Z" stroke="#FAC93D" stroke-width="4"/>
<rect x="167" y="312.342" width="58.328" height="35.2347" rx="5" transform="rotate(-8.16299 167 312.342)" fill="url(#paint2_linear)"/>
<path d="M195.42 308.11L199.696 343.37" stroke="url(#paint3_linear)" stroke-width="12"/>
<path d="M191.729 297.968C192.087 298.324 192.511 299.108 192.885 300.398C193.241 301.626 193.484 303.07 193.645 304.489C193.783 305.702 193.857 306.858 193.896 307.782C192.971 307.751 191.815 307.687 190.601 307.559C189.181 307.41 187.735 307.179 186.503 306.834C185.211 306.471 184.423 306.053 184.064 305.698C181.93 303.581 181.915 300.135 184.032 298.001C186.148 295.867 189.594 295.852 191.729 297.968Z" stroke="#FAC93D" stroke-width="4"/>
<path d="M206.673 303.678C206.37 304.083 205.652 304.612 204.427 305.16C203.26 305.682 201.863 306.123 200.48 306.479C199.298 306.783 198.164 307.016 197.253 307.183C197.157 306.263 197.06 305.109 197.018 303.889C196.97 302.462 196.998 300.998 197.17 299.73C197.35 298.4 197.655 297.562 197.957 297.157C199.758 294.751 203.169 294.259 205.576 296.06C207.982 297.861 208.474 301.272 206.673 303.678Z" stroke="#FAC93D" stroke-width="4"/>
<rect x="333.625" y="378.655" width="42.8693" height="56.947" rx="4" transform="rotate(8.71163 333.625 378.655)" fill="url(#paint4_linear)"/>
<line y1="-3" x2="57.4157" y2="-3" transform="matrix(-0.167108 0.985939 -0.985938 -0.167109 352.824 381.534)" stroke="url(#paint5_linear)" stroke-width="6"/>
<path d="M356.15 370.984C356.436 371.504 356.612 372.43 356.604 373.737C356.597 374.997 356.423 376.418 356.182 377.779C355.943 379.133 355.646 380.389 355.407 381.308C355.404 381.32 355.401 381.331 355.398 381.342C355.387 381.338 355.376 381.335 355.365 381.331C354.461 381.038 353.243 380.614 351.972 380.088C350.696 379.559 349.404 378.943 348.337 378.272C347.231 377.576 346.545 376.93 346.259 376.409C344.761 373.678 345.76 370.249 348.492 368.751C351.223 367.253 354.652 368.252 356.15 370.984Z" stroke="#FAC93D" stroke-width="3"/>
<path d="M368.227 380.845C367.751 381.2 366.858 381.502 365.562 381.676C364.313 381.843 362.882 381.867 361.501 381.817C360.127 381.768 358.842 381.647 357.899 381.538C357.887 381.537 357.876 381.535 357.864 381.534C357.866 381.523 357.868 381.511 357.87 381.5C358.035 380.564 358.287 379.298 358.632 377.967C358.979 376.63 359.411 375.265 359.928 374.116C360.464 372.924 361.008 372.155 361.485 371.8C363.982 369.938 367.517 370.454 369.378 372.951C371.24 375.449 370.725 378.984 368.227 380.845Z" stroke="#FAC93D" stroke-width="3"/>
<rect x="490.848" y="398.417" width="95.7158" height="71.8708" rx="5" transform="rotate(19.2307 490.848 398.417)" fill="url(#paint6_linear)"/>
<rect x="488.17" y="389.029" width="107.127" height="17.882" rx="5" transform="rotate(19.2307 488.17 389.029)" fill="#6AA4FB"/>
<path d="M539.519 406.673L512.048 482.316" stroke="url(#paint7_linear)" stroke-width="12"/>
<path d="M541.046 392.132C541.287 392.834 541.311 394.027 541.017 395.675C540.734 397.26 540.207 399.014 539.607 400.681C539.017 402.323 538.375 403.831 537.875 404.937C536.801 404.372 535.368 403.578 533.892 402.646C532.395 401.701 530.9 400.642 529.702 399.566C528.456 398.447 527.741 397.492 527.5 396.79C526.213 393.049 528.203 388.974 531.944 387.688C535.684 386.401 539.76 388.391 541.046 392.132Z" stroke="#FAC93D" stroke-width="4"/>
<path d="M554.206 407.139C553.544 407.476 552.366 407.664 550.693 407.601C549.084 407.541 547.274 407.261 545.54 406.898C543.833 406.54 542.25 406.113 541.085 405.772C541.497 404.629 542.085 403.1 542.803 401.51C543.532 399.896 544.373 398.269 545.274 396.933C546.21 395.545 547.057 394.704 547.719 394.368C551.245 392.576 555.557 393.983 557.348 397.51C559.14 401.036 557.733 405.348 554.206 407.139Z" stroke="#FAC93D" stroke-width="4"/>
<rect x="91.9225" y="24.9278" width="63.19" height="27.9312" rx="5" transform="rotate(-21.1382 91.9225 24.9278)" fill="url(#paint8_linear)"/>
<path d="M95.9502 36.416L156.574 13.4007M121.635 13.3898L131.45 40.8065" stroke="url(#paint9_linear)" stroke-width="5"/>
<path d="M117.625 7.99106C117.763 8.08099 118.084 8.41341 118.491 9.17981C118.868 9.89046 119.211 10.7651 119.505 11.6543C119.664 12.1351 119.804 12.6052 119.922 13.0351C119.481 13.102 118.995 13.1665 118.492 13.2177C117.56 13.3124 116.621 13.3558 115.819 13.3014C114.953 13.2428 114.519 13.0859 114.38 12.996C112.998 12.0999 112.604 10.2531 113.5 8.87108C114.396 7.48901 116.243 7.09502 117.625 7.99106Z" stroke="#FAC93D" stroke-width="4"/>
<path d="M127.96 8.85248C127.89 9.00231 127.606 9.36574 126.903 9.8747C126.251 10.3466 125.433 10.8078 124.592 11.2218C124.138 11.4457 123.692 11.6489 123.283 11.8262C123.155 11.3987 123.024 10.9262 122.904 10.4343C122.681 9.52466 122.508 8.60109 122.451 7.79856C122.389 6.93308 122.485 6.48126 122.555 6.33143C123.251 4.83867 125.025 4.1929 126.518 4.88907C128.011 5.58524 128.656 7.35972 127.96 8.85248Z" stroke="#FAC93D" stroke-width="4"/>
</g>
<defs>
<filter id="filter0_d" x="124.315" y="64.3159" width="140.938" height="187.584" filterUnits="userSpaceOnUse" color-interpolation-filters="sRGB">
<feFlood flood-opacity="0" result="BackgroundImageFix"/>
<feColorMatrix in="SourceAlpha" type="matrix" values="0 0 0 0 0 0 0 0 0 0 0 0 0 0 0 0 0 0 127 0"/>
<feOffset dy="4"/>
<feGaussianBlur stdDeviation="2.5"/>
<feColorMatrix type="matrix" values="0 0 0 0 0.862745 0 0 0 0 0.894118 0 0 0 0 1 0 0 0 0.25 0"/>
<feBlend mode="normal" in2="BackgroundImageFix" result="effect1_dropShadow"/>
<feBlend mode="normal" in="SourceGraphic" in2="effect1_dropShadow" result="shape"/>
</filter>
<filter id="filter1_d" x="55.1976" y="119.59" width="101.609" height="147.838" filterUnits="userSpaceOnUse" color-interpolation-filters="sRGB">
<feFlood flood-opacity="0" result="BackgroundImageFix"/>
<feColorMatrix in="SourceAlpha" type="matrix" values="0 0 0 0 0 0 0 0 0 0 0 0 0 0 0 0 0 0 127 0"/>
<feOffset dy="4"/>
<feGaussianBlur stdDeviation="2.5"/>
<feColorMatrix type="matrix" values="0 0 0 0 0.862745 0 0 0 0 0.894118 0 0 0 0 1 0 0 0 0.25 0"/>
<feBlend mode="normal" in2="BackgroundImageFix" result="effect1_dropShadow"/>
<feBlend mode="normal" in="SourceGraphic" in2="effect1_dropShadow" result="shape"/>
</filter>
<filter id="filter2_d" x="86.5431" y="163.616" width="31.8341" height="26.0554" filterUnits="userSpaceOnUse" color-interpolation-filters="sRGB">
<feFlood flood-opacity="0" result="BackgroundImageFix"/>
<feColorMatrix in="SourceAlpha" type="matrix" values="0 0 0 0 0 0 0 0 0 0 0 0 0 0 0 0 0 0 127 0"/>
<feOffset dy="2"/>
<feGaussianBlur stdDeviation="1.5"/>
<feColorMatrix type="matrix" values="0 0 0 0 0.862745 0 0 0 0 0.894118 0 0 0 0 1 0 0 0 0.25 0"/>
<feBlend mode="normal" in2="BackgroundImageFix" result="effect1_dropShadow"/>
<feBlend mode="normal" in="SourceGraphic" in2="effect1_dropShadow" result="shape"/>
</filter>
<filter id="filter3_d" x="86.5431" y="162.616" width="30.539" height="19.4633" filterUnits="userSpaceOnUse" color-interpolation-filters="sRGB">
<feFlood flood-opacity="0" result="BackgroundImageFix"/>
<feColorMatrix in="SourceAlpha" type="matrix" values="0 0 0 0 0 0 0 0 0 0 0 0 0 0 0 0 0 0 127 0"/>
<feOffset dy="1"/>
<feGaussianBlur stdDeviation="1.5"/>
<feColorMatrix type="matrix" values="0 0 0 0 0 0 0 0 0 0 0 0 0 0 0 0 0 0 0.1 0"/>
<feBlend mode="normal" in2="BackgroundImageFix" result="effect1_dropShadow"/>
<feBlend mode="normal" in="SourceGraphic" in2="effect1_dropShadow" result="shape"/>
</filter>
<linearGradient id="paint0_linear" x1="411.917" y1="249.876" x2="411.917" y2="282.876" gradientUnits="userSpaceOnUse">
<stop stop-color="#F08972"/>
<stop offset="1" stop-color="#DA7C68"/>
</linearGradient>
<linearGradient id="paint1_linear" x1="376.048" y1="226.185" x2="374.977" y2="254.164" gradientUnits="userSpaceOnUse">
<stop stop-color="#F7C63B"/>
<stop offset="1" stop-color="#D9A122"/>
</linearGradient>
<linearGradient id="paint2_linear" x1="196.03" y1="328.285" x2="194.744" y2="351.336" gradientUnits="userSpaceOnUse">
<stop stop-color="#6AA4FB"/>
<stop offset="1" stop-color="#3E75C6"/>
</linearGradient>
<linearGradient id="paint3_linear" x1="195.47" y1="308.365" x2="202.243" y2="342.71" gradientUnits="userSpaceOnUse">
<stop stop-color="#FAC93D"/>
<stop offset="1" stop-color="#D8A021"/>
</linearGradient>
<linearGradient id="paint4_linear" x1="354.399" y1="420.105" x2="355.06" y2="435.602" gradientUnits="userSpaceOnUse">
<stop stop-color="#D94730"/>
<stop offset="1" stop-color="#9E2815"/>
</linearGradient>
<linearGradient id="paint5_linear" x1="1.3397" y1="-0.21207" x2="58.9578" y2="-1.88146" gradientUnits="userSpaceOnUse">
<stop stop-color="#F1BE35"/>
<stop offset="1" stop-color="#D9A222"/>
</linearGradient>
<linearGradient id="paint6_linear" x1="538.706" y1="398.417" x2="538.603" y2="419.615" gradientUnits="userSpaceOnUse">
<stop stop-color="#3F7AD4"/>
<stop offset="1" stop-color="#6AA4FB"/>
</linearGradient>
<linearGradient id="paint7_linear" x1="539.335" y1="407.235" x2="514.987" y2="482.89" gradientUnits="userSpaceOnUse">
<stop stop-color="#FAC93D"/>
<stop offset="1" stop-color="#D8A021"/>
</linearGradient>
<linearGradient id="paint8_linear" x1="125.13" y1="42.7091" x2="123.517" y2="52.8591" gradientUnits="userSpaceOnUse">
<stop stop-color="#D94730"/>
<stop offset="1" stop-color="#9E2815"/>
</linearGradient>
<linearGradient id="paint9_linear" x1="125.491" y1="13.1371" x2="127.322" y2="41.0771" gradientUnits="userSpaceOnUse">
<stop stop-color="#F7C63B"/>
<stop offset="1" stop-color="#D9A122"/>
</linearGradient>
<clipPath id="clip0">
<rect width="589" height="497" fill="white"/>
</clipPath>
</defs>
</svg>
